<svg width="307" height="64" viewBox="0 0 307 64" fill="none" xmlns="http://www.w3.org/2000/svg">
<path d="M305.52 18.8915C305.669 20.691 304.856 22.5926 303.028 24.584C301.2 26.5747 298.4 28.6046 294.7 30.6385C287.304 34.7045 276.415 38.7292 262.82 42.4831C235.638 49.9885 197.736 56.3843 155.559 59.8848C113.383 63.3853 74.9443 63.3254 46.8969 60.4037C32.869 58.9425 21.466 56.7678 13.5005 53.9768C9.516 52.5807 6.42023 51.04 4.28909 49.3779C2.15717 47.7152 1.04208 45.9736 0.892726 44.1741C0.743376 42.3746 1.55611 40.4731 3.38475 38.4817C5.21273 36.491 8.01216 34.461 11.712 32.4272C19.1084 28.3612 29.9969 24.3364 43.5919 20.5826C70.7739 13.0771 108.677 6.68131 150.853 3.18085C193.03 -0.319606 231.468 -0.259741 259.515 2.66192C273.543 4.12318 284.946 6.29784 292.912 9.08887C296.896 10.485 299.992 12.0257 302.123 13.6878C304.255 15.3505 305.37 17.092 305.52 18.8915Z" stroke="white"/>
</svg>
